<?xml version="1.0" encoding="UTF-8" standalone="no"?>
<svg
   viewBox="0 0 4018 1545"
   version="1.1"
   id="svg-car"
   sodipodi:docname="car.svg"
   inkscape:version="1.3.2 (091e20e, 2023-11-25)"
   xmlns:inkscape="http://www.inkscape.org/namespaces/inkscape"
   xmlns:sodipodi="http://sodipodi.sourceforge.net/DTD/sodipodi-0.dtd"
   xmlns="http://www.w3.org/2000/svg"
   xmlns:svg="http://www.w3.org/2000/svg">
  <defs
     id="defs3" />
  <sodipodi:namedview
     id="namedview3"
     pagecolor="#ffffff"
     bordercolor="#000000"
     borderopacity="0.25"
     inkscape:showpageshadow="2"
     inkscape:pageopacity="0.0"
     inkscape:pagecheckerboard="0"
     inkscape:deskcolor="#d1d1d1"
     showgrid="false"
     inkscape:zoom="0.19736187"
     inkscape:cx="2009"
     inkscape:cy="772.69231"
     inkscape:window-width="1440"
     inkscape:window-height="768"
     inkscape:window-x="0"
     inkscape:window-y="25"
     inkscape:window-maximized="1"
     inkscape:current-layer="svg-car"
     showguides="true" />
  <g
     id="car"
     inkscape:label="damage">
    <path
       d="M 709.296875 950.5 C 681.296875 952.347656 654.800781 959.695312 630.878906 971.472656 L 630.914062 971.476562 L 699.078125 1089.539062 C 699.289062 1089.902344 699.445312 1090.28125 699.554688 1090.667969 L 699.554688 1090.664062 C 702.765625 1089.558594 706.078125 1088.671875 709.472656 1088.023438 L 709.507812 1088.015625 C 709.390625 1087.601562 709.328125 1087.160156 709.328125 1086.703125 L 709.328125 950.5 Z M 737.289062 950.5 L 737.289062 1086.703125 C 737.289062 1087.152344 737.230469 1087.589844 737.113281 1088.015625 L 737.148438 1088.023438 C 740.65625 1088.691406 744.066406 1089.617188 747.375 1090.777344 L 747.375 1090.773438 C 747.484375 1090.34375 747.652344 1089.929688 747.875 1089.542969 L 815.972656 971.601562 L 816.003906 971.597656 C 792.011719 959.746094 765.421875 952.355469 737.324219 950.503906 L 737.324219 950.5 Z M 606.671875 985.46875 C 583.996094 1000.6875 564.457031 1020.21875 549.230469 1042.894531 L 549.269531 1042.898438 L 667.40625 1111.101562 C 667.738281 1111.292969 668.035156 1111.515625 668.304688 1111.773438 L 668.304688 1111.769531 C 670.558594 1109.183594 672.988281 1106.753906 675.582031 1104.511719 L 675.613281 1104.503906 C 675.324219 1104.210938 675.074219 1103.882812 674.867188 1103.523438 L 606.707031 985.46875 Z M 840.15625 985.628906 L 772.09375 1103.523438 C 771.847656 1103.949219 771.539062 1104.332031 771.183594 1104.664062 L 771.222656 1104.671875 C 773.804688 1106.917969 776.226562 1109.355469 778.46875 1111.953125 L 778.46875 1111.949219 C 778.785156 1111.621094 779.148438 1111.335938 779.546875 1111.105469 L 897.453125 1043.035156 L 897.484375 1043.03125 C 882.296875 1020.382812 862.808594 1000.855469 840.1875 985.628906 Z M 514.214844 1145.613281 L 514.214844 1145.617188 C 514.214844 1145.617188 514.214844 1145.617188 514.214844 1145.613281 Z M 535.222656 1067.09375 C 523.421875 1091.042969 516.058594 1117.574219 514.214844 1145.613281 L 514.214844 1145.621094 L 650.421875 1145.613281 C 650.867188 1145.613281 651.304688 1145.675781 651.726562 1145.796875 L 651.726562 1145.792969 C 652.382812 1142.355469 653.285156 1139.003906 654.40625 1135.761719 L 654.441406 1135.757812 C 654.089844 1135.652344 653.746094 1135.503906 653.425781 1135.316406 L 535.257812 1067.09375 Z M 911.441406 1067.246094 L 793.53125 1135.320312 C 793.117188 1135.5625 792.671875 1135.738281 792.210938 1135.847656 L 792.242188 1135.855469 C 793.351562 1139.066406 794.242188 1142.386719 794.894531 1145.796875 L 794.898438 1145.792969 C 795.320312 1145.675781 795.757812 1145.613281 796.199219 1145.613281 L 932.375 1145.617188 L 932.40625 1145.613281 C 930.5625 1117.632812 923.230469 1091.15625 911.472656 1067.25 L 911.472656 1067.246094 Z M 723.308594 1132.261719 C 708.210938 1132.261719 695.976562 1144.5 695.976562 1159.59375 C 695.976562 1174.695312 708.214844 1186.929688 723.308594 1186.929688 C 738.410156 1186.929688 750.644531 1174.691406 750.644531 1159.59375 C 750.644531 1144.5 738.40625 1132.261719 723.308594 1132.261719 Z M 794.894531 1173.40625 C 794.234375 1176.84375 793.332031 1180.199219 792.207031 1183.449219 L 792.257812 1183.457031 C 792.738281 1183.554688 793.207031 1183.734375 793.65625 1183.992188 L 911.445312 1252.003906 L 911.445312 1252 C 923.21875 1228.074219 930.5625 1201.578125 932.40625 1173.582031 L 932.4375 1173.578125 L 796.199219 1173.574219 C 795.757812 1173.574219 795.332031 1173.519531 794.925781 1173.414062 L 794.925781 1173.40625 Z M 651.695312 1173.40625 C 651.28125 1173.519531 650.855469 1173.578125 650.421875 1173.578125 L 514.246094 1173.578125 L 514.214844 1173.585938 C 516.0625 1201.640625 523.433594 1228.1875 535.25 1252.152344 L 653.300781 1183.992188 C 653.652344 1183.792969 654.023438 1183.636719 654.40625 1183.53125 L 654.441406 1183.527344 C 653.304688 1180.253906 652.390625 1176.875 651.726562 1173.40625 Z M 778.460938 1207.253906 C 776.171875 1209.898438 773.695312 1212.378906 771.054688 1214.675781 L 771.089844 1214.679688 C 771.429688 1214.996094 771.726562 1215.367188 771.972656 1215.789062 L 840.027344 1333.671875 L 840.027344 1333.667969 C 862.695312 1318.4375 882.226562 1298.894531 897.441406 1276.222656 L 897.472656 1276.21875 L 779.671875 1208.207031 C 779.226562 1207.953125 778.832031 1207.628906 778.492188 1207.253906 Z M 668.289062 1207.4375 C 667.996094 1207.730469 667.660156 1207.992188 667.28125 1208.210938 L 549.238281 1276.367188 L 549.273438 1276.363281 C 564.53125 1299.058594 584.113281 1318.609375 606.835938 1333.832031 L 606.835938 1333.828125 L 674.988281 1215.789062 C 675.191406 1215.4375 675.433594 1215.113281 675.714844 1214.832031 L 675.746094 1214.828125 C 673.101562 1212.542969 670.617188 1210.078125 668.320312 1207.4375 Z M 699.695312 1228.585938 C 699.585938 1228.992188 699.421875 1229.390625 699.203125 1229.773438 L 631.046875 1347.824219 L 631.082031 1347.820312 C 654.960938 1359.542969 681.394531 1366.851562 709.328125 1368.695312 L 709.328125 1232.484375 C 709.328125 1232.035156 709.390625 1231.597656 709.503906 1231.1875 L 709.535156 1231.183594 C 706.175781 1230.542969 702.902344 1229.667969 699.726562 1228.589844 L 699.726562 1228.585938 Z M 747.203125 1228.476562 C 743.929688 1229.613281 740.550781 1230.523438 737.085938 1231.1875 L 737.113281 1231.195312 C 737.230469 1231.605469 737.289062 1232.042969 737.289062 1232.484375 L 737.289062 1368.695312 L 737.292969 1368.691406 C 765.324219 1366.84375 791.855469 1359.484375 815.800781 1347.695312 L 815.832031 1347.6875 L 747.753906 1229.769531 C 747.519531 1229.363281 747.34375 1228.925781 747.238281 1228.476562 Z M 723.308594 895.371094 C 869.234375 895.371094 987.53125 1013.667969 987.53125 1159.59375 C 987.53125 1305.519531 869.234375 1423.820312 723.308594 1423.820312 C 577.386719 1423.820312 459.085938 1305.519531 459.085938 1159.59375 C 459.085938 1013.667969 577.386719 895.371094 723.308594 895.371094 Z M 723.308594 774.480469 C 510.621094 774.480469 338.199219 946.90625 338.199219 1159.59375 C 338.199219 1372.28125 510.621094 1544.707031 723.308594 1544.707031 C 935.996094 1544.707031 1108.421875 1372.28125 1108.421875 1159.59375 C 1108.421875 946.90625 935.996094 774.480469 723.308594 774.480469 Z M 723.308594 774.480469 "
       id="front-wheel"
       inkscape:label="front wheel" />
    <path
       d="M 3311.179688 950.5 C 3283.191406 952.347656 3256.691406 959.695312 3232.769531 971.472656 L 3232.808594 971.476562 L 3300.96875 1089.539062 C 3301.179688 1089.902344 3301.339844 1090.277344 3301.441406 1090.667969 L 3301.441406 1090.664062 C 3304.648438 1089.558594 3307.96875 1088.667969 3311.359375 1088.019531 L 3311.398438 1088.015625 C 3311.28125 1087.597656 3311.21875 1087.160156 3311.21875 1086.703125 L 3311.21875 950.5 Z M 3339.179688 950.496094 L 3339.179688 1086.703125 C 3339.179688 1087.152344 3339.121094 1087.589844 3339 1088.015625 L 3339.039062 1088.023438 C 3342.539062 1088.691406 3345.960938 1089.613281 3349.261719 1090.773438 L 3349.261719 1090.769531 C 3349.371094 1090.34375 3349.539062 1089.929688 3349.761719 1089.542969 L 3417.859375 971.601562 L 3417.890625 971.597656 C 3393.898438 959.746094 3367.308594 952.351562 3339.210938 950.5 L 3339.210938 950.496094 Z M 3208.558594 985.46875 C 3185.890625 1000.6875 3166.351562 1020.21875 3151.121094 1042.894531 L 3151.160156 1042.898438 L 3269.289062 1111.101562 C 3269.628906 1111.292969 3269.929688 1111.515625 3270.199219 1111.769531 L 3270.199219 1111.765625 C 3272.449219 1109.179688 3274.878906 1106.753906 3277.46875 1104.511719 L 3277.5 1104.503906 C 3277.21875 1104.210938 3276.960938 1103.882812 3276.75 1103.519531 L 3208.589844 985.46875 Z M 3442.039062 985.628906 L 3373.980469 1103.523438 C 3373.730469 1103.949219 3373.429688 1104.332031 3373.070312 1104.664062 L 3373.109375 1104.671875 C 3375.691406 1106.917969 3378.121094 1109.351562 3380.359375 1111.953125 L 3380.359375 1111.949219 C 3380.679688 1111.621094 3381.03125 1111.332031 3381.441406 1111.101562 L 3499.339844 1043.035156 L 3499.378906 1043.03125 C 3484.191406 1020.382812 3464.699219 1000.855469 3442.070312 985.628906 Z M 3116.101562 1145.613281 L 3116.101562 1145.617188 C 3116.101562 1145.617188 3116.101562 1145.617188 3116.101562 1145.613281 Z M 3137.109375 1067.089844 C 3125.308594 1091.042969 3117.949219 1117.574219 3116.101562 1145.613281 L 3116.101562 1145.621094 L 3252.308594 1145.613281 C 3252.75 1145.613281 3253.191406 1145.675781 3253.621094 1145.792969 L 3253.621094 1145.789062 C 3254.269531 1142.355469 3255.171875 1139.003906 3256.300781 1135.761719 L 3256.328125 1135.757812 C 3255.980469 1135.648438 3255.640625 1135.503906 3255.308594 1135.316406 L 3137.140625 1067.089844 Z M 3513.328125 1067.242188 L 3395.421875 1135.320312 C 3395 1135.5625 3394.558594 1135.734375 3394.101562 1135.847656 L 3394.128906 1135.851562 C 3395.238281 1139.066406 3396.128906 1142.386719 3396.78125 1145.792969 L 3396.789062 1145.789062 C 3397.210938 1145.675781 3397.640625 1145.613281 3398.089844 1145.613281 L 3534.269531 1145.617188 L 3534.289062 1145.613281 C 3532.449219 1117.632812 3525.121094 1091.152344 3513.359375 1067.246094 L 3513.359375 1067.242188 Z M 3325.199219 1132.261719 C 3310.101562 1132.261719 3297.859375 1144.496094 3297.859375 1159.59375 C 3297.859375 1174.691406 3310.101562 1186.929688 3325.199219 1186.929688 C 3340.300781 1186.929688 3352.53125 1174.691406 3352.53125 1159.59375 C 3352.53125 1144.496094 3340.300781 1132.261719 3325.199219 1132.261719 Z M 3396.78125 1173.40625 C 3396.121094 1176.84375 3395.21875 1180.195312 3394.089844 1183.449219 L 3394.140625 1183.453125 C 3394.628906 1183.554688 3395.101562 1183.734375 3395.539062 1183.992188 L 3513.339844 1252 L 3513.339844 1251.996094 C 3525.109375 1228.074219 3532.449219 1201.574219 3534.300781 1173.582031 L 3534.320312 1173.578125 L 3398.089844 1173.574219 C 3397.648438 1173.574219 3397.21875 1173.515625 3396.808594 1173.414062 L 3396.808594 1173.40625 Z M 3253.589844 1173.40625 C 3253.171875 1173.519531 3252.738281 1173.578125 3252.308594 1173.578125 L 3116.140625 1173.578125 L 3116.101562 1173.585938 C 3117.949219 1201.636719 3125.320312 1228.1875 3137.140625 1252.152344 L 3255.191406 1183.992188 C 3255.539062 1183.789062 3255.910156 1183.632812 3256.300781 1183.53125 L 3256.328125 1183.527344 C 3255.191406 1180.253906 3254.28125 1176.875 3253.621094 1173.40625 Z M 3380.351562 1207.253906 C 3378.058594 1209.898438 3375.589844 1212.378906 3372.941406 1214.675781 L 3372.980469 1214.679688 C 3373.320312 1214.996094 3373.621094 1215.367188 3373.859375 1215.789062 L 3441.921875 1333.671875 L 3441.921875 1333.667969 C 3464.589844 1318.4375 3484.109375 1298.894531 3499.328125 1276.222656 L 3499.359375 1276.21875 L 3381.558594 1208.207031 C 3381.121094 1207.949219 3380.71875 1207.625 3380.378906 1207.253906 Z M 3270.179688 1207.4375 C 3269.890625 1207.730469 3269.550781 1207.992188 3269.171875 1208.210938 L 3151.128906 1276.367188 L 3151.160156 1276.363281 C 3166.421875 1299.058594 3186 1318.609375 3208.730469 1333.832031 L 3208.730469 1333.828125 L 3276.878906 1215.789062 C 3277.078125 1215.4375 3277.320312 1215.113281 3277.609375 1214.828125 L 3277.640625 1214.828125 C 3274.988281 1212.542969 3272.5 1210.074219 3270.210938 1207.4375 Z M 3301.578125 1228.582031 C 3301.480469 1228.988281 3301.308594 1229.390625 3301.089844 1229.769531 L 3232.941406 1347.820312 L 3232.96875 1347.820312 C 3256.851562 1359.539062 3283.28125 1366.851562 3311.21875 1368.695312 L 3311.21875 1232.484375 C 3311.21875 1232.035156 3311.28125 1231.597656 3311.390625 1231.1875 L 3311.429688 1231.183594 C 3308.070312 1230.542969 3304.789062 1229.667969 3301.609375 1228.585938 L 3301.609375 1228.582031 Z M 3349.089844 1228.476562 C 3345.820312 1229.613281 3342.441406 1230.519531 3338.980469 1231.1875 L 3339 1231.191406 C 3339.121094 1231.605469 3339.179688 1232.042969 3339.179688 1232.484375 L 3339.179688 1368.695312 L 3339.179688 1368.691406 C 3367.21875 1366.84375 3393.738281 1359.484375 3417.691406 1347.691406 L 3417.71875 1347.6875 L 3349.640625 1229.769531 C 3349.410156 1229.359375 3349.230469 1228.925781 3349.128906 1228.476562 Z M 3325.199219 895.371094 C 3471.128906 895.371094 3589.421875 1013.667969 3589.421875 1159.59375 C 3589.421875 1305.519531 3471.128906 1423.816406 3325.199219 1423.816406 C 3179.269531 1423.816406 3060.980469 1305.519531 3060.980469 1159.59375 C 3060.980469 1013.667969 3179.269531 895.371094 3325.199219 895.371094 Z M 3325.199219 774.480469 C 3112.511719 774.480469 2940.089844 946.90625 2940.089844 1159.59375 C 2940.089844 1372.28125 3112.511719 1544.707031 3325.199219 1544.707031 C 3537.890625 1544.707031 3710.308594 1372.28125 3710.308594 1159.59375 C 3710.308594 946.90625 3537.890625 774.480469 3325.199219 774.480469 Z M 3325.199219 774.480469 "
       id="rear-wheel"
       inkscape:label="rear wheel" />
    <path
       id="rear"
       style="display:inline"
       inkscape:label="rear"
       d="M 3700 426.42969 L 3700 918.71094 C 3744.7589 988.21419 3771.0313 1070.754 3771.0312 1159.5664 C 3771.0312 1165.246 3770.9295 1170.8984 3770.7188 1176.5234 C 3930.0559 1077.0681 4010.908 982.11195 4013.2812 891.66016 L 4013.2812 891.65625 C 4013.2813 891.65125 4013.281 891.61416 4013.291 891.46094 L 4017.9238 807.41016 C 4018.5722 795.70705 4011.1622 785.07031 3999.9512 781.62891 L 3990.8809 778.83984 C 3988.6622 778.16015 3987.1426 776.10937 3987.1309 773.77734 L 3986.1426 473.27344 C 3986.1306 467.25392 3983.9825 461.4414 3980.0918 456.86328 L 3954.2891 426.42969 L 3700 426.42969 z " />
    <path
       id="side"
       style="display:inline"
       inkscape:label="side"
       d="M 1101.9668 426.42969 C 1101.2652 426.51311 1100.7007 426.59238 1100 426.67578 L 1100 921.91602 C 1129.8497 969.16131 1151.3916 1022.1817 1161.7773 1079.2051 L 1169.1406 1159.5605 C 1169.1406 1197.7244 1164.3516 1234.7676 1155.3281 1270.123 L 2893.0703 1270.123 L 2893.1797 1270.1328 C 2884.1602 1234.7735 2879.3594 1197.7304 2879.3594 1159.5664 C 2879.3594 913.3403 3078.9694 713.73047 3325.1992 713.73047 C 3482.6105 713.73047 3620.6679 795.52129 3700 918.71094 L 3700 426.42969 L 1101.9668 426.42969 z " />
    <path
       id="front"
       inkscape:label="front"
       d="m 1100,426.67578 c -291.15786,34.65711 -506.20765,67.36705 -644.86997,98.125 h -0.004 c -0.0899,0.0195 -0.12109,0.0273 -0.19139,0.0391 h -0.008 c -110.1054,19.94137 -208.43796,57.60167 -294.99258,112.98438 -1.3828,0.88672 -2.66016,1.88672 -3.81642,2.98828 l -0.0859,0.004 C 86.565636,695.91382 42.18999,767.51971 22.900943,855.63672 l -0.01172,0.0469 -21.6836234,99.92969 c -1.73046778,7.96873 0.4531362,16.28126 5.8711016,22.3711 l 30.4844168,34.24219 c 0.808593,0.9101 1.281251,2.0742 1.339846,3.289 l 2.839848,61.0703 c 0.0664,1.461 -0.47266,2.8907 -1.49219,3.9414 l -33.0664509,34.1524 c -5.4687465,5.6484 -7.93750842,13.3906 -6.98047808,20.9492 h -0.0859376 c 0.33984277,15.918 3.29689014,31.2422 8.88282434,45.9766 0.03125,0.086 0.0625,0.1719 0.089844,0.2578 h -0.085938 c -0.011718,0.3398 -0.019531,0.6874 -0.019531,1.0351 l 0.2148441,-0.2148 h 0.085937 c 0.042969,0.2735 0.0625,0.5585 0.058594,0.8437 -0.035156,4.5351 1.1406311,8.9571 3.3476611,12.8282 h 0.08203 l 0.125001,0.07 h -0.03125 c 0.02734,0.035 0.0547,0.082 0.07812,0.1211 l -0.140624,0.01 c 0.640622,1.0899 1.363284,2.1446 2.164065,3.1446 h -0.08203 c 0.890624,1.2851 1.863285,2.5429 2.91016,3.7773 23.789047,27.9883 114.758267,49.4219 272.902707,64.3125 -8.63672,-34.6521 -13.22268,-70.9025 -13.22268,-108.2265 -0.004,-246.22618 199.61015,-445.83595 445.83262,-445.83595 158.75396,0 297.73979,83.22463 376.69189,208.1875 z"
       style="stroke-width:1.00001" />
    <path
       id="top"
       style="display:inline"
       inkscape:label="top"
       d="M 2176.4492 0 C 1974.7817 0 1831.3787 14.828183 1746.2188 44.480469 L 1746.209 44.488281 C 1746.178 44.500001 1746.127 44.519533 1746.0566 44.539062 C 1619.4672 84.191328 1405.599 211.18011 1104.4277 425.48047 C 1103.6972 426 1102.8574 426.32031 1101.9668 426.42969 L 3954.2891 426.42969 L 3714.6094 143.73828 C 3712.8203 141.64062 3712.9414 138.51953 3714.8906 136.55859 L 3737.7695 113.51953 L 3737.6484 113.51953 C 3743.3203 109.00002 3747.0313 102.10936 3747.2617 94.320312 C 3747.6719 80.531278 3737.0507 68.921875 3723.2812 68.101562 C 2961.6109 22.699311 2453.3197 0.01171875 2198.4102 0.01171875 C 2195.0586 0.01171875 2191.7305 0.011718868 2188.4609 0.01953125 L 2188.4297 0.01953125 C 2184.4098 0.011718868 2180.4102 0 2176.4492 0 z " />
    <path
       d="m 3999.9102,847.03906 -2.7618,50.14844 c -0.01,0.16016 -0.01,0.19531 -0.01,0.19531 -0.082,3.125 -0.25,6.25781 -0.5312,9.39844 l -0.1211,-0.008 c -30.418,2.92968 -60.8594,5.85937 -91.3281,8.78906 -0.3008,0.0312 -0.6016,0.043 -0.9102,0.043 -2.3594,0 -4.6484,-0.875 -6.4102,-2.47656 -1.9882,-1.80469 -3.121,-4.3711 -3.121,-7.0586 V 860.8514 c 0,-5.10156 4.0117,-9.29687 9.1015,-9.52734 l 73.8985,-3.29688 z"
       id="rear-bumper"
       inkscape:label="rear bumper"
       style="fill:#ffffff;fill-opacity:1" />
    <path
       d="m 405.57422,608.82812 c 6.19922,0 11.97265,3.39844 14.95312,8.94532 3.26563,6.07812 2.53125,13.52734 -1.86328,18.84765 l -57.83984,70.07422 c -2.35156,2.85156 -5.56641,4.85547 -9.16016,5.71094 l -126.80078,30.20312 -68.27734,47.8086 c -2.85938,2 -6.26172,3.07031 -9.74219,3.07031 h -0.31641 l -81.804684,-1.51562 -0.08203,-0.008 C 88.675781,736.83594 125.13672,689.88281 174.02734,651.10547 l 0.082,-0.004 c 1.16016,-1.10156 2.4375,-2.10156 3.82032,-2.98828 9.99609,-6.39844 20.15234,-12.55469 30.46484,-18.47656 l -0.0859,-0.008 195.46875,-20.70704 c 0.60157,-0.0625 1.19922,-0.0937 1.79688,-0.0937 z"
       id="headlight"
       inkscape:label="headlight"
       style="fill:#ffffff;fill-opacity:1" />
    <path
       d="m 3894.8516,479.44922 c 0.3398,0 0.6797,0.0117 1.0273,0.0391 l 73.8516,4.97266 0.289,0.0195 0.5821,177.32812 c -19.5821,-2.61328 -34.461,-4.60156 -44.6602,-5.96093 -27.1914,-3.62891 -47.1328,-6.28907 -59.8125,-7.98047 -4.1406,-0.55469 -7.8594,-2.78516 -10.3008,-6.17188 -2.4375,-3.38281 -3.3672,-7.625 -2.5781,-11.72265 4.9414,-25.51172 9.3906,-48.55469 13.3711,-69.1211 4.9375,-25.51172 9.3906,-48.55078 13.3594,-69.12109 1.3984,-7.16016 7.6679,-12.28125 14.8711,-12.28125 z"
       id="taillight"
       inkscape:label="taillight"
       style="fill:#ffffff;fill-opacity:1" />
    <path
       d="m 2089.6719,546.16406 c 14.5,0 26.9687,1.04688 37.4179,3.14063 13.2696,2.65625 20.2618,6.39453 20.961,11.21484 l -0.5391,2.34375 c -2.8203,4.79688 -11.5,8.91016 -26.0429,12.33203 -12.3086,2.87891 -26.5196,4.66016 -42.6485,5.33985 -3.039,0.1289 -6.1601,0.22265 -9.3398,0.27343 h -1.2422 c -18.5391,0 -33.4883,-1.51562 -44.8281,-4.55078 -3.7188,-1.0039 -6.7891,-2.13672 -9.2188,-3.40234 l -3.082,-1.98438 c -1.711,-1.3789 -2.6094,-2.85937 -2.6875,-4.43359 0.2969,-4.86328 6.9375,-9.17969 19.9375,-12.94922 12.9922,-3.76953 29.3789,-6.13281 49.1523,-7.09375 4.1992,-0.15234 8.2578,-0.23047 12.1602,-0.23047 z"
       id="front-handle"
       inkscape:label="front handle"
       style="fill:#ffffff;fill-opacity:1" />
    <path
       d="m 3072.7891,504.71875 c 4.2695,0 8.3711,0.0898 12.2812,0.26953 3.7578,0.18359 7.3516,0.44141 10.7813,0.78125 8.2968,0.99219 13.0781,1.69141 14.3476,2.08984 5.9024,1.17969 10.5508,2.57032 13.9727,4.17969 3.7265,2.10938 5.5898,3.42969 5.5898,3.98047 0.7774,0.96094 1.25,1.98047 1.3985,3.05078 l -0.5313,2.35156 c -1.2578,2.12891 -3.668,4.12891 -7.2383,5.98829 l -2.8906,1.37109 c -2.0781,0.89844 -4.4414,1.75 -7.0898,2.57812 -2.6485,0.83204 -5.5899,1.62891 -8.8204,2.39063 -8.371,1.76953 -13.5507,2.73047 -15.539,2.89844 -3.6524,0.53125 -7.4414,0.99218 -11.3516,1.37109 -5.039,0.48047 -10.289,0.83984 -15.7578,1.07031 -3.0508,0.12891 -6.1601,0.21875 -9.3398,0.26953 h -1.2735 c -8,0 -15.3281,-0.28125 -21.9883,-0.84765 -3.5117,-0.30078 -6.8281,-0.67188 -9.9609,-1.1211 -1.8008,-0.1289 -6.0898,-0.99218 -12.8476,-2.58203 -11.5196,-3.36718 -16.4024,-7.17968 -14.6602,-11.41797 0.7578,-2.10937 2.7695,-4.10937 6.0391,-6 1.6289,-0.9414 3.5781,-1.85937 5.8398,-2.75 0.7813,-0.49218 4.8398,-1.76171 12.1797,-3.80078 12.2305,-3.07031 27.1211,-5.03906 44.6992,-5.89062 4.1992,-0.14844 8.25,-0.23047 12.1602,-0.23047 z"
       id="rear-handle"
       inkscape:label="rear handle"
       style="fill:#ffffff;fill-opacity:1" />
    <path
       d="m 2254.9688,83.558594 c 4.2031,0 8.1718,1.953125 10.7421,5.292968 2.5586,3.328126 3.4375,7.660157 2.3594,11.726568 L 2209.8789,321 l -38.957,147.55859 c -1.5235,5.76172 -6.6328,9.85157 -12.5821,10.08203 l -666.7812,25.91797 c 26.832,-5.66797 53.6797,-11.33984 80.5625,-17.01953 8.4492,-1.78906 13.9375,-10 12.3477,-18.5 l -14.3594,-76.75 c -1.1602,-6.16797 -5.8281,-11.08984 -11.9375,-12.55078 -29.9531,-7.16797 -59.8906,-14.32812 -89.8438,-21.5 -1.2187,-0.29687 -2.4687,-0.4375 -3.6992,-0.4375 -0.3203,0 -0.6484,0.008 -0.957,0.0273 l 0.1367,-41.57812 0.1016,0.0117 c -0.8086,-4.77344 0.9804,-9.6836 4.8203,-12.80078 130.0586,-105.48047 277.1797,-170.57032 441.3789,-195.28125 l 0.082,-0.0195 0.01,0.0117 c 31.8594,-5.14063 67.6016,-9.582036 107.2227,-13.320318 h 0.098 c 0.2696,-0.04297 0.5391,-0.07031 0.8008,-0.08984 l 63.6992,-4.992188 c 0.02,0 0.039,-0.0078 0.051,-0.0078 l 0.01,0.0078 c 37.9727,-2.828125 93.8321,-4.878906 167.5625,-6.148437 l 0.1094,0.0078 c 0.09,-0.0078 0.1914,-0.0078 0.2891,-0.0078 1.8125,-0.03125 3.3711,-0.05078 4.6601,-0.0625 z"
       id="front-window"
       inkscape:label="front window"
       style="fill:#ffffff;fill-opacity:1" />
    <path
       d="m 2408.2617,84.039062 h 0.1992 c 108.8789,1.640626 236.4493,5.859376 382.6797,12.652344 h 0.02 c 48.8515,2.199219 104.6796,4.957034 167.4804,8.289064 5.7383,0.30078 10.4688,4.14062 12.168,9.30859 h 0.1133 c 53.7578,100.64063 108.4062,202.94141 163.9492,306.92188 2.2383,4.19922 2.1172,9.26953 -0.332,13.35937 -2.4493,4.08985 -6.8672,6.58985 -11.6289,6.58985 h 0.1406 l -761,29.57031 c -0.1719,0 -0.3516,0.008 -0.5313,0.008 -3.8007,0 -7.4297,-1.59766 -10.0078,-4.41797 -2.6914,-2.9414 -3.9531,-6.92969 -3.4336,-10.89062 15.5938,-120.25 31.1328,-240.10938 46.6211,-359.570315 0.8789,-6.757813 6.6289,-11.820313 13.4492,-11.820313 z"
       id="rear-window"
       style="fill:#ffffff;fill-opacity:1"
       inkscape:label="rear window" />
    <path
       d="m 3242.5898,121.03125 c 0.2696,0 0.5391,0.008 0.8008,0.0273 105.75,6.25 223.3711,13.47266 352.8477,21.64063 3.8828,0.24219 7.2812,2.10156 9.5898,4.89062 h -0.1172 l 202.7696,245.1211 c 3.289,3.98047 4.0312,9.46875 1.9297,14.17968 -2.1094,4.71094 -6.6993,7.8086 -11.8516,8.00782 l -315.0703,12.25 c -0.168,0 -0.3477,0.0117 -0.5195,0.0117 -3.9375,0 -7.6875,-1.71875 -10.2774,-4.71094 L 3232.1992,143.44141 c -3.4609,-4.01172 -4.2578,-9.67969 -2.0508,-14.5 2.211,-4.82032 7.0235,-7.91016 12.3204,-7.91016 z"
       id="rear-quarter-window"
       style="fill-rule:nonzero;fill:#ffffff;fill-opacity:1"
       inkscape:label="rear quarter window" />
  </g>
  <g
     id="airbags"
     transform="matrix(3.3910727,0,0,3.3910727,1477.263,199.79795)"
     style="opacity:0">
	<path
   id="XMLID_48_"
   d="m 282.114,72.911 c -5.641,-5.892 -14.965,-6.083 -20.836,-0.461 l -5.074,4.854 c 4.777,8.423 7.003,18.365 5.352,28.668 l -1.323,8.265 21.42,-20.49 c 5.88,-5.628 6.082,-14.957 0.461,-20.836 z" />

	<path
   id="XMLID_47_"
   d="m 127.554,178.681 c -6.015,0.692 -11.693,3.53 -15.666,8.37 l -57.374,69.923 c -8.308,10.12 -6.831,25.056 3.29,33.359 4.404,3.615 9.728,5.381 15.021,5.381 6.851,0 13.651,-2.959 18.332,-8.668 l 48.119,-58.636 25.44,5.703 -29.374,-35.307 c -4.92,-5.914 -7.404,-12.993 -7.788,-20.125 z" />

	<path
   id="XMLID_46_"
   d="m 221.651,75.587 c -12.884,-2.063 -25.076,6.729 -27.148,19.655 l -9.094,56.843 c 0.941,0.896 1.938,1.712 2.792,2.738 l 37.556,45.14 15.561,-97.229 c 2.06,-12.926 -6.737,-25.081 -19.667,-27.147 z" />

	<path
   id="XMLID_45_"
   d="m 191.576,63.591 c 4.672,2.447 9.9,3.957 15.541,3.957 9.592,0 18.207,-4.044 24.355,-10.462 5.804,-6.067 9.42,-14.254 9.42,-23.31 C 240.893,15.124 225.775,0 207.117,0 188.468,0 173.35,15.124 173.35,33.776 c 0,13.012 7.443,24.173 18.226,29.815 z" />

	<path
   id="XMLID_44_"
   d="m 173.1,167.39 c -5.209,-6.249 -14.484,-7.113 -20.749,-1.903 -6.264,5.209 -7.107,14.5 -1.907,20.753 l 85.135,102.329 c 2.917,3.5 7.108,5.31 11.34,5.31 3.319,0 6.656,-1.118 9.411,-3.407 6.263,-5.208 7.108,-14.499 1.909,-20.754 z" />

	<path
   id="XMLID_43_"
   d="M 156.861,73.673 C 156.861,32.984 123.88,0 83.186,0 42.493,0 9.514,32.984 9.514,73.673 c 0,40.688 32.979,73.674 73.672,73.674 40.694,0 73.675,-32.987 73.675,-73.674 z" />

</g>
</svg>
